<svg width="75" height="83" viewBox="0 0 75 83" fill="none" xmlns="http://www.w3.org/2000/svg">
<path d="M68.0615 60.1805H7.00537V60.141C7.00956 60.0492 7.01235 59.949 7.01653 59.8573V59.8404C7.03049 59.5214 7.04445 59.2025 7.06259 58.8807C7.07375 58.6366 7.0877 58.3854 7.10445 58.137C7.11841 57.8886 7.13236 57.6374 7.15329 57.3862C7.1812 56.9121 7.22028 56.4365 7.26493 55.9623C7.28587 55.7182 7.3068 55.4768 7.32773 55.2327C7.35285 54.9886 7.37657 54.7472 7.40448 54.5031V54.4848C7.40448 54.4848 7.40448 54.4847 7.40448 54.4805C7.43239 54.2364 7.46031 53.9922 7.48543 53.7481C7.51334 53.5138 7.54124 53.2838 7.57334 53.0509C7.60543 52.7885 7.64032 52.5302 7.67103 52.2677C7.79662 51.3264 7.94036 50.3865 8.09805 49.4594C8.13991 49.2082 8.18178 48.957 8.22783 48.7086C8.28086 48.4221 8.3325 48.1385 8.38832 47.8548C11.2533 32.7688 18.4527 18.3686 29.9782 6.71044C30.3522 6.33505 30.7276 5.95966 31.1099 5.59416C33.1543 3.60009 35.2839 1.74856 37.4804 0.0240376L37.5013 0.0423843L37.5362 0.0141602L37.5683 0.0423843L37.5893 0.0240376C39.7844 1.74856 41.9139 3.6015 43.9597 5.59416C44.3421 5.95825 44.7203 6.33364 45.0915 6.71044C56.2095 17.9579 63.2986 31.7513 66.359 46.2502C66.366 46.2898 66.3729 46.325 66.3841 46.3631C66.4371 46.6002 66.486 46.8415 66.5306 47.0814C66.5837 47.3397 66.6325 47.5951 66.6813 47.8534C66.7372 48.1371 66.7902 48.4193 66.8418 48.7072C66.8879 48.9556 66.9297 49.2068 66.9716 49.458C67.1293 50.3894 67.273 51.3278 67.3986 52.2663C67.4335 52.5288 67.4656 52.787 67.5005 53.0495C67.5284 53.2838 67.5563 53.5138 67.5842 53.7467C67.668 54.4791 67.7419 55.22 67.8089 55.9595C67.8717 56.682 67.9247 57.4074 67.9666 58.1342C67.9847 58.3826 67.9987 58.6338 68.0085 58.8779C68.0294 59.3168 68.0475 59.7486 68.0615 60.1805Z" fill="#0E2F7A"/>
<path d="M7.00564 60.1409V60.1804H6.93848L7.00564 60.1409Z" fill="#0E2F7A"/>
<path d="M37.479 0.0268137C35.2839 1.75134 33.1544 3.60428 31.1086 5.59693C30.7262 5.96103 30.3522 6.33642 29.9768 6.71321C18.4513 18.3714 11.2519 32.7701 8.38694 47.8576C8.33112 48.1412 8.27809 48.4235 8.22646 48.7114C8.18041 48.9598 8.13854 49.211 8.09668 49.4622C7.93898 50.3893 7.79525 51.3278 7.66965 52.2705C7.63756 52.533 7.60267 52.7912 7.57197 53.0537C7.53987 53.288 7.51196 53.518 7.48405 53.7509C7.45893 53.995 7.43102 54.2392 7.40311 54.4833C7.40311 54.4875 7.40311 54.4875 7.40311 54.4875V54.5059C7.3752 54.75 7.35008 54.9913 7.32636 55.2355C7.30543 55.4796 7.28449 55.721 7.26356 55.9651C7.21751 56.4393 7.17983 56.9149 7.15192 57.389C7.13099 57.6402 7.11703 57.8914 7.10308 58.1398C7.08494 58.3882 7.07098 58.6394 7.06121 58.8835C7.04307 59.2053 7.02911 59.5242 7.01516 59.8431V59.8601C7.01097 59.9518 7.00818 60.052 7.004 60.1437V60.1833H6.93701C6.9412 60.0774 6.94399 59.9673 6.94818 59.8615V59.8446C6.96213 59.5256 6.97609 59.2067 6.99423 58.8849C7.00539 58.6408 7.01935 58.3896 7.0361 58.1412C7.04726 57.8928 7.064 57.6416 7.08493 57.3904C7.11284 56.9163 7.15192 56.4407 7.19378 55.9665C7.21472 55.7224 7.23984 55.481 7.26077 55.2369C7.28589 54.9928 7.30961 54.7514 7.33473 54.5073C7.33892 54.5002 7.33892 54.4932 7.33892 54.4889C7.33892 54.4889 7.33892 54.489 7.33892 54.4847C7.36404 54.2406 7.39474 53.9964 7.41986 53.7523C7.44777 53.518 7.47568 53.288 7.50359 53.0551C7.53847 52.7927 7.57057 52.5344 7.60546 52.2719C7.73106 51.3306 7.872 50.3907 8.03248 49.4636C8.07435 49.2124 8.11621 48.9612 8.16226 48.7128C8.21529 48.4263 8.26693 48.1427 8.32275 47.859C11.1877 32.773 18.3871 18.3728 29.9126 6.71463C30.2838 6.33924 30.662 5.96385 31.0444 5.59834C33.0999 3.5944 35.2392 1.73158 37.4497 0L37.479 0.0268137Z" fill="#0E2F7A"/>
<path d="M37.5878 0.0268345L37.5669 0.0451932L37.5347 0.0169472L37.5529 0C37.5627 0.00847394 37.5766 0.0155359 37.5878 0.0268345Z" fill="#0E2F7A"/>
<path d="M10.7496 73.6592C10.7496 77.3481 8.63399 79.8008 5.47177 79.8008H0V67.0461H5.08382C8.47909 67.0461 10.7496 69.695 10.7496 73.6592ZM2.3277 77.6826H5.2778C7.23709 77.6826 8.36326 76.2107 8.36326 73.6592C8.36326 70.8141 7.08219 69.1658 4.88985 69.1658H2.3277V77.6826Z" fill="#0E2F7A"/>
<path d="M16.2213 69.7938C19.0542 69.7938 21.0721 71.8937 21.0721 74.8376V75.4656H13.9118C14.0667 77.1731 14.9012 78.0552 16.3567 78.0552C17.5596 78.0552 18.2965 77.4864 18.4723 76.5635H20.9563C20.5683 78.82 18.9775 79.9575 16.3386 79.9575C13.3689 79.9575 11.5073 77.9959 11.5073 74.8559C11.5073 71.7357 13.3312 69.7938 16.2213 69.7938ZM13.9523 73.8356H18.57C18.4541 72.4427 17.5415 71.5593 16.2423 71.5593C14.9612 71.5593 14.1853 72.2861 13.9523 73.8356Z" fill="#0E2F7A"/>
<path d="M26.527 69.7938C29.3599 69.7938 31.3778 71.8937 31.3778 74.8376V75.4656H24.2174C24.3723 77.1731 25.2069 78.0552 26.6624 78.0552C27.8653 78.0552 28.6021 77.4864 28.778 76.5635H31.262C30.874 78.82 29.2831 79.9575 26.6442 79.9575C23.6746 79.9575 21.813 77.9959 21.813 74.8559C21.8116 71.7357 23.6355 69.7938 26.527 69.7938ZM24.2551 73.8356H28.8742C28.7584 72.4427 27.8458 71.5593 26.5465 71.5593C25.2655 71.5593 24.4882 72.2861 24.2551 73.8356Z" fill="#0E2F7A"/>
<path d="M34.6377 69.9899V71.6185C35.3159 70.402 36.403 69.6949 37.7818 69.6949C40.2267 69.6949 41.8566 71.7553 41.8566 74.8558C41.8566 77.976 40.2267 80.0562 37.7818 80.0562C36.403 80.0562 35.3173 79.3492 34.6377 78.1129V83H32.3086V69.9899H34.6377ZM37.0645 71.7553C35.5308 71.7553 34.6391 72.8928 34.6391 74.8558C34.6391 76.8372 35.5322 77.9958 37.0645 77.9958C38.5772 77.9958 39.4703 76.8386 39.4703 74.8558C39.4703 72.8942 38.5772 71.7553 37.0645 71.7553Z" fill="#0E2F7A"/>
<path d="M51.928 69.2645H48.3387V79.8022H46.0096V69.2645H42.4204V67.0475H51.928V69.2645Z" fill="#0E2F7A"/>
<path d="M61.5918 79.8008H59.225C59.0701 79.3492 58.9724 78.7805 58.9334 78.1525C58.2928 79.3308 57.1276 80.0365 55.7125 80.0365C53.8495 80.0365 52.4917 78.7607 52.4917 76.9953C52.4917 75.2679 53.5397 74.2476 55.4223 74.1502L57.9453 73.9936C58.6445 73.9343 58.8957 73.6986 58.8957 73.1694V73.1299C58.8957 72.2267 58.0416 71.5211 56.9936 71.5211C55.7711 71.5211 55.1111 72.0503 54.9757 73.1101H52.5698C52.7247 71.0497 54.4524 69.7147 56.9936 69.7147C59.4971 69.7147 61.2248 71.2459 61.2248 73.4234V76.7991C61.2234 78.0353 61.3587 79.1544 61.5918 79.8008ZM56.5652 78.1144C57.8839 78.1144 58.8929 77.1138 58.8929 75.7788V75.426L56.2735 75.5826C55.3427 75.6419 54.8571 76.054 54.8571 76.7793C54.8585 77.5837 55.5367 78.1144 56.5652 78.1144Z" fill="#0E2F7A"/>
<path d="M64.6968 66.0653V79.8008H62.3677V66.0653H64.6968Z" fill="#0E2F7A"/>
<path d="M74.7474 69.9899L70.9447 74.6413L75 79.8022H72.2439L69.217 75.9947L68.169 77.2705V79.8022H65.8413V66.0653H68.169V74.7387L71.8364 69.9899H74.7474Z" fill="#0E2F7A"/>
<path d="M50.1376 36.1783C50.1055 36.1783 50.072 36.1769 50.0399 36.1741C49.4957 36.1205 49.0994 35.6308 49.1524 35.0804C49.4552 31.9658 48.8189 28.8089 47.3606 26.1896C46.0111 23.7651 43.9932 21.8656 41.6781 20.8411C39.3225 19.7982 36.5831 19.6782 34.1605 20.5123C31.7937 21.3265 29.6628 23.0384 28.1584 25.333C26.608 27.6982 25.761 30.6421 25.7749 33.6212C25.7777 34.108 25.8014 34.5991 25.8489 35.0818C25.9019 35.6322 25.5042 36.1205 24.9613 36.1755C24.4171 36.2291 23.9342 35.8269 23.8798 35.2779C23.8268 34.7346 23.7989 34.1814 23.7961 33.6325C23.7807 30.261 24.7436 26.9221 26.5089 24.2294C28.2533 21.5693 30.7443 19.5766 33.5227 18.6198C36.4491 17.6122 39.6267 17.7505 42.4707 19.0093C45.1766 20.2074 47.5252 22.409 49.084 25.2088C50.7405 28.1823 51.4634 31.7583 51.1215 35.2779C51.0712 35.793 50.6414 36.1783 50.1376 36.1783Z" fill="#FFB248"/>
<path d="M27.8249 45.0818H25.0604C24.184 45.0818 23.4751 44.3635 23.4751 43.4786V39.1532C23.4751 38.267 24.1854 37.55 25.0604 37.55H27.8249C28.7013 37.55 29.4102 38.2684 29.4102 39.1532V43.4786C29.4116 44.3635 28.7013 45.0818 27.8249 45.0818Z" fill="#FFB248"/>
<path d="M51.5249 39.0093V43.6198C51.5249 44.3296 51.0239 44.9209 50.3624 45.0536V46.3434C50.3624 48.2189 49.1748 49.8546 47.4039 50.4148L43.3416 51.6976C43.2384 52.6262 42.4597 53.3474 41.5163 53.3474C40.5032 53.3474 39.6826 52.5175 39.6826 51.4916C39.6826 50.467 40.5032 49.6372 41.5163 49.6372C41.9378 49.6372 42.3285 49.7812 42.6369 50.0239C42.6509 50.0183 42.662 50.0126 42.676 50.0084L46.8681 48.6832C47.8854 48.3629 48.5692 47.4216 48.5692 46.3448V45.0818H47.0327C46.2345 45.0818 45.587 44.427 45.587 43.6198V39.0093C45.587 38.202 46.2345 37.5472 47.0327 37.5472H50.0791C50.8774 37.5472 51.5249 38.202 51.5249 39.0093Z" fill="#FFB248"/>
<path d="M43.5943 25.316H31.406C30.464 25.316 29.7007 26.088 29.7007 27.0406V34.2788C29.7007 35.2313 30.464 36.0019 31.406 36.0019H33.1922V38.4306C33.1922 38.9104 33.7197 39.1969 34.1161 38.933L38.5091 36.0005H43.5929C44.5335 36.0005 45.2968 35.2299 45.2968 34.2773V27.0391C45.2982 26.088 44.5349 25.316 43.5943 25.316ZM34.6464 31.2573C34.6464 31.62 34.3561 31.9121 33.9974 31.9121H32.8475C32.4889 31.9121 32.2 31.6186 32.2 31.2573V30.5065C32.2 30.1439 32.4903 29.8517 32.8475 29.8517H33.9974C34.3561 29.8517 34.6464 30.1453 34.6464 30.5065V31.2573ZM38.7226 31.2573C38.7226 31.62 38.4324 31.9121 38.0737 31.9121H36.9238C36.5652 31.9121 36.2763 31.6186 36.2763 31.2573V30.5065C36.2763 30.1439 36.5666 29.8517 36.9238 29.8517H38.0737C38.4324 29.8517 38.7226 30.1453 38.7226 30.5065V31.2573ZM42.7989 31.2573C42.7989 31.62 42.5086 31.9121 42.15 31.9121H41.0001C40.6414 31.9121 40.3512 31.6186 40.3512 31.2573V30.5065C40.3512 30.1439 40.6414 29.8517 41.0001 29.8517H42.15C42.5086 29.8517 42.7989 30.1453 42.7989 30.5065V31.2573Z" fill="#FFB248"/>
</svg>
