<svg width="72" height="93" viewBox="0 0 72 93" fill="none" xmlns="http://www.w3.org/2000/svg">
<path d="M0.599317 70.3245V70.369H0.522461L0.599317 70.3245Z" fill="#0E2F7A"/>
<path d="M0.599317 70.3245V70.369H0.522461L0.599317 70.3245Z" fill="#0E2F7A"/>
<path d="M35.9709 13.0663L35.9538 13.0807L35.9268 13.0563L35.941 13.0419C35.951 13.0505 35.9623 13.0563 35.9709 13.0663Z" fill="#0E2F7A"/>
<path d="M0.0782783 70.2109V70.257H0L0.0782783 70.2109Z" fill="#0E2F7A"/>
<path d="M14.0247 80.1034H6.0631V84.3055H13.36V87.0191H6.0631V92.9986H3.21094V77.3898H14.0261V80.1034H14.0247Z" fill="#0E2F7A"/>
<path d="M28.1672 77.3898V93H25.1485L18.065 81.5688V93H15.2129V77.3898H18.7781L25.315 88.2443V77.3898H28.1672Z" fill="#0E2F7A"/>
<path d="M40.171 93L39.0068 89.517H33.1601L32.0429 93H29L34.4666 77.3898H37.723L43.1896 93H40.171ZM33.9201 87.1643H38.2453L36.0592 80.5363L33.9201 87.1643Z" fill="#0E2F7A"/>
<path d="M47.0153 89.7816V93H43.8301V89.7816H47.0153Z" fill="#0E2F7A"/>
<path d="M62.6324 93L61.4682 89.517H55.6215L54.5043 93H51.4614L56.9281 77.3898H60.1844L65.6511 93H62.6324ZM56.3801 87.1643H60.7068L58.5207 80.5363L56.3801 87.1643Z" fill="#0E2F7A"/>
<path d="M69.3116 77.3898V93H66.4595V77.3898H69.3116Z" fill="#0E2F7A"/>
<path d="M36.2599 0C36.2713 0.0129426 36.351 0.0704665 36.3623 0.0819711C38.9299 2.09671 41.4205 4.26244 43.8116 6.59212C44.2585 7.01778 44.7011 7.4564 45.1337 7.89501C58.1364 21.0361 66.4253 37.154 70.0033 54.0945C70.0119 54.139 70.0204 54.1807 70.0332 54.2267C70.0944 54.5043 70.1514 54.7847 70.204 55.0666C70.2652 55.3671 70.3236 55.6663 70.3805 55.9683C70.446 56.299 70.5086 56.6312 70.5698 56.9648C70.6239 57.2553 70.6723 57.5487 70.7221 57.8421C70.9057 58.9307 71.0736 60.0279 71.2216 61.1237C71.2615 61.4315 71.2985 61.732 71.3412 62.0383C71.3739 62.3101 71.4067 62.5805 71.4394 62.8523C71.5376 63.7094 71.623 64.5737 71.7013 65.4394C71.7738 66.2821 71.835 67.1306 71.8849 67.9805C71.9062 68.2695 71.9219 68.5629 71.9347 68.849C71.9646 69.3581 71.9845 69.8615 72.0001 70.3677H0.599317V70.3231L0.522461 70.3677C0.526731 70.2425 0.531001 70.1145 0.533847 69.9909V69.9693C0.550926 69.5954 0.566582 69.2244 0.587931 68.8476C0.599317 68.5614 0.616394 68.2681 0.637743 67.979C0.649128 67.6885 0.670477 67.3952 0.696096 67.1018C0.72883 66.5467 0.77295 65.993 0.822763 65.438C0.846958 65.1518 0.876848 64.8699 0.899619 64.5852C0.928084 64.3004 0.957972 64.0186 0.986437 63.7338C0.990706 63.7252 0.990706 63.7166 0.990706 63.7123C0.990706 63.7123 0.990706 63.7123 0.990706 63.7079C1.01917 63.4232 1.05617 63.137 1.08464 62.8509C1.11737 62.5791 1.15011 62.3087 1.18284 62.0369C1.22269 61.7292 1.2597 61.4286 1.30239 61.1223C1.45041 60.0222 1.61266 58.9249 1.80195 57.8406C1.85176 57.5473 1.90015 57.2539 1.95424 56.9634C2.01544 56.6298 2.07663 56.2976 2.1421 55.9668C5.49239 38.3404 13.9122 21.515 27.3889 7.89357C27.8244 7.45352 28.2656 7.01635 28.711 6.59068C31.1149 4.24806 33.6184 2.07226 36.2015 0.0474566" fill="#0E2F7A"/>
<path d="M36.2597 54.3361C42.4874 54.3361 47.536 49.2349 47.536 42.9423C47.536 36.6497 42.4874 31.5485 36.2597 31.5485C30.032 31.5485 24.9834 36.6497 24.9834 42.9423C24.9834 49.2349 30.032 54.3361 36.2597 54.3361Z" fill="#FFB248"/>
<path d="M42.6087 36.402C42.5518 36.7068 42.4223 36.9484 42.223 37.1267C42.0238 37.3065 41.759 37.364 41.4317 37.3007C41.2239 37.2605 41.0503 37.1814 40.9094 37.0635C40.7685 36.9455 40.6461 36.7989 40.5393 36.6249C40.4326 36.4508 40.3415 36.2581 40.2632 36.0467C40.185 35.8354 40.1166 35.6657 40.0583 35.5348C39.6057 35.4686 39.2001 35.7189 38.8414 36.2812C38.5895 36.6781 38.3632 37.2677 38.164 38.0471L36.5344 46.7244C36.2497 48.243 35.6292 49.3978 34.6728 50.1902C33.7164 50.9825 32.6532 51.2659 31.4819 51.0415C30.887 50.9279 30.46 50.7223 30.2038 50.4289C29.9476 50.1341 29.8508 49.8177 29.9135 49.4798C29.9704 49.1749 30.0999 48.9333 30.2992 48.755C30.4984 48.5752 30.7631 48.5177 31.0905 48.581C31.2983 48.6212 31.4719 48.7003 31.6128 48.8183C31.7537 48.9362 31.8761 49.0829 31.9829 49.2569C32.0882 49.4309 32.1807 49.6236 32.259 49.835C32.3372 50.0464 32.4056 50.2161 32.4639 50.3469C32.9165 50.4131 33.3221 50.1628 33.6808 49.6006C33.9327 49.2037 34.159 48.6169 34.3582 47.8389L35.9893 39.1573C36.2739 37.6387 36.8944 36.4839 37.8509 35.6915C38.8073 34.8992 39.8704 34.6159 41.0417 34.8402C41.6367 34.9538 42.0636 35.1595 42.3198 35.4528C42.5746 35.7476 42.6713 36.064 42.6087 36.402Z" fill="#0E2F7A"/>
<path d="M39.966 43.8785L39.1732 40.6687C39.112 40.4214 39.3696 40.2172 39.5931 40.3351L41.7678 41.4913C41.9229 41.5733 41.9713 41.7732 41.8731 41.9184L40.4897 43.972C40.3488 44.1848 40.0272 44.1273 39.966 43.8785Z" fill="#0E2F7A"/>
<path d="M39.8462 43.0803L33.5484 44.5961C33.2552 44.6665 32.9592 44.4839 32.8894 44.1862L32.7884 43.7548C32.7187 43.4586 32.8994 43.1594 33.194 43.089L39.4918 41.5732L39.8462 43.0803Z" fill="#0E2F7A"/>
<path d="M45.5164 56.8527L45.2503 56.6442C44.6369 56.1653 43.9736 55.7267 43.2819 55.3413L42.5888 54.9545L43.2663 54.5403C47.3552 52.0352 49.7961 47.662 49.7961 42.8402C49.7961 35.2989 43.7246 29.1641 36.2611 29.1641C28.7977 29.1641 22.7262 35.2989 22.7262 42.8402C22.7262 47.5009 25.0446 51.7965 28.9286 54.3318L29.0154 54.3994L29.5306 54.8495L28.9485 55.1831C28.2483 55.5426 27.5652 55.9568 26.9176 56.4127L26.6486 56.6025L26.3839 56.4055C22.0658 53.1986 19.5894 48.2531 19.5894 42.8387C19.5894 33.5502 27.0684 25.9932 36.2611 25.9932C45.4538 25.9932 52.9329 33.5502 52.9329 42.8387C52.9329 48.3307 50.2643 53.4948 45.7939 56.6557L45.5164 56.8527ZM44.3807 54.9171C44.7792 55.1644 45.1663 55.4261 45.5378 55.7037C49.5997 52.7024 52.0163 47.918 52.0163 42.8402C52.0163 34.0622 44.9485 26.9207 36.2611 26.9207C27.5737 26.9207 20.5059 34.0622 20.5059 42.8402C20.5059 47.8475 22.7475 52.4292 26.6685 55.465C27.0571 55.2018 27.457 54.953 27.864 54.7215C24.0668 51.9863 21.811 47.5915 21.811 42.8416C21.811 34.7898 28.2939 28.2409 36.2611 28.2409C44.2284 28.2409 50.7112 34.7913 50.7112 42.8416C50.7112 47.731 48.3586 52.1905 44.3807 54.9171Z" fill="#FFB248"/>
<path d="M36.4576 30.6224H36.0633C35.7929 30.6224 35.5737 30.4009 35.5737 30.1277V26.4908C35.5737 26.2176 35.7929 25.9961 36.0633 25.9961H36.4576C36.728 25.9961 36.9472 26.2176 36.9472 26.4908V30.1277C36.9472 30.4009 36.728 30.6224 36.4576 30.6224Z" fill="#FFB248"/>
<path d="M46.0016 35.6383L45.7226 35.3564C45.5319 35.1637 45.5319 34.8488 45.7226 34.6561L48.2674 32.0848C48.4581 31.8921 48.7698 31.8921 48.9605 32.0848L49.2394 32.3667C49.4302 32.5594 49.4302 32.8743 49.2394 33.067L46.6947 35.6383C46.5026 35.8324 46.1923 35.8324 46.0016 35.6383Z" fill="#FFB248"/>
<path d="M26.798 35.3584L26.5191 35.6403C26.3284 35.833 26.0167 35.833 25.826 35.6403L23.2812 33.069C23.0905 32.8763 23.0905 32.5614 23.2812 32.3687L23.5602 32.0868C23.7509 31.8941 24.0626 31.8941 24.2533 32.0868L26.798 34.6581C26.9887 34.8508 26.9887 35.1643 26.798 35.3584Z" fill="#FFB248"/>
<path d="M47.9332 45.3396L47.983 44.9455C48.0171 44.6737 48.2619 44.4825 48.5309 44.5156L52.1018 44.97C52.3708 45.0045 52.5601 45.2518 52.5274 45.5236L52.4776 45.9177C52.4434 46.1895 52.1986 46.3807 51.9296 46.3477L48.3587 45.8932C48.0897 45.8587 47.899 45.6114 47.9332 45.3396Z" fill="#FFB248"/>
<path d="M24.5876 45.3396L24.5378 44.9455C24.5037 44.6737 24.2589 44.4825 23.9899 44.5156L20.419 44.97C20.15 45.0045 19.9607 45.2518 19.9934 45.5236L20.0432 45.9177C20.0774 46.1895 20.3222 46.3807 20.5912 46.3477L24.1621 45.8932C24.4311 45.8587 24.6218 45.6114 24.5876 45.3396Z" fill="#FFB248"/>
<path d="M47.4819 33.8623L48.4085 32.9362L49.6566 33.6092L51.6193 37.6545L52.4049 40.8268L52.5017 45.7206L50.2288 45.4316L50.1277 41.6998L49.4218 37.3367L47.4819 33.8623Z" fill="#FFB248"/>
</svg>
