<svg width="73" height="92" viewBox="0 0 73 92" fill="none" xmlns="http://www.w3.org/2000/svg">
<path d="M0.609151 69.3535V69.3999H0.529785L0.609151 69.3535Z" fill="#0E2F7A"/>
<path d="M0.609151 69.3535V69.3999H0.529785L0.609151 69.3535Z" fill="#0E2F7A"/>
<path d="M36.472 12.8852L36.4547 12.8997L36.4272 12.8751L36.4417 12.8606C36.4503 12.8707 36.4633 12.8765 36.472 12.8852Z" fill="#0E2F7A"/>
<path d="M0.0793655 69.2415V69.2878H0L0.0793655 69.2415Z" fill="#0E2F7A"/>
<path d="M21.4993 76.5085L25.6941 88.8785L29.7922 76.5085H32.8961L27.3189 92H23.9971L18.4199 76.5085H21.4993Z" fill="#0E2F7A"/>
<path d="M36.8009 88.8062V92H33.5513V88.8062H36.8009Z" fill="#0E2F7A"/>
<path d="M41.433 76.5085V92H38.5225V76.5085H41.433Z" fill="#0E2F7A"/>
<path d="M45.7733 86.6844V92H42.8628V76.5085H49.5569C52.9032 76.5085 55.1095 78.5338 55.1095 81.5844C55.1095 84.5642 53.0489 86.6844 49.8484 86.6844H45.7733ZM45.7733 78.9862V84.1103H49.2899C51.0605 84.1103 52.1023 83.1814 52.1023 81.5844C52.1023 79.9407 51.0836 78.9862 49.2899 78.9862H45.7733Z" fill="#0E2F7A"/>
<path d="M36.7636 0C36.7751 0.0127642 36.8559 0.0694949 36.8675 0.0808409C39.4706 2.0678 41.9959 4.20367 44.4201 6.50122C44.8732 6.92102 45.322 7.35359 45.7607 7.78615C58.944 20.7461 67.348 36.6417 70.9757 53.3486C70.9844 53.3926 70.993 53.4337 71.006 53.4791C71.068 53.7528 71.1258 54.0294 71.1792 54.3074C71.2412 54.6038 71.3004 54.8988 71.3581 55.1966C71.4245 55.5228 71.488 55.8504 71.55 56.1794C71.6048 56.4659 71.6539 56.7552 71.7044 57.0446C71.8906 58.1182 72.0608 59.2003 72.2109 60.281C72.2513 60.5845 72.2888 60.8809 72.3321 61.183C72.3653 61.451 72.3985 61.7177 72.4317 61.9857C72.5312 62.831 72.6178 63.6834 72.6972 64.5371C72.7708 65.3682 72.8328 66.205 72.8833 67.0432C72.905 67.3282 72.9209 67.6176 72.9339 67.8998C72.9642 68.4019 72.9844 68.8982 73.0002 69.3975H0.609173V69.3535L0.53125 69.3975C0.535579 69.2741 0.539908 69.1479 0.542794 69.0259V69.0046C0.56011 68.6359 0.575984 68.27 0.597629 67.8984C0.609173 67.6161 0.62649 67.3268 0.648135 67.0418C0.659679 66.7553 0.681322 66.466 0.707296 66.1766C0.740485 65.6292 0.785218 65.0832 0.835723 64.5357C0.860254 64.2535 0.890559 63.9755 0.913647 63.6947C0.942507 63.4139 0.97281 63.1359 1.00167 62.8551C1.006 62.8466 1.006 62.8381 1.006 62.8338C1.006 62.8338 1.006 62.8338 1.006 62.8296C1.03486 62.5488 1.07238 62.2665 1.10124 61.9843C1.13443 61.7163 1.16761 61.4496 1.2008 61.1816C1.24121 60.8781 1.27873 60.5817 1.32202 60.2796C1.47209 59.1946 1.63659 58.1125 1.82851 57.0432C1.87902 56.7538 1.92808 56.4645 1.98291 56.178C2.04496 55.849 2.10701 55.5214 2.17339 55.1952C5.57021 37.8118 14.107 21.2183 27.7708 7.78474C28.2124 7.35075 28.6597 6.91961 29.1113 6.49981C31.5486 4.18949 34.0868 2.04369 36.7059 0.0468023" fill="#0E2F7A"/>
<path d="M35.351 56.5369C21.0826 47.7622 21.9873 34.279 22.4145 31.1517C22.4722 30.7334 22.6555 30.3448 22.9368 30.0413L28.0422 24.547C28.5645 23.9839 29.2846 23.6663 30.035 23.6663H43.4967C44.2485 23.6663 44.9671 23.9839 45.4895 24.547L50.5949 30.0413C50.8762 30.3448 51.0609 30.7334 51.1172 31.1517C51.5443 34.2804 52.4491 47.7622 38.1807 56.5369C37.3063 57.0744 36.224 57.0744 35.351 56.5369Z" fill="#FFB248"/>
<path d="M42.0478 46.629H31.4807C30.7029 46.629 30.0737 46.0093 30.0737 45.2463V37.4502C30.0737 36.6857 30.7043 36.0674 31.4807 36.0674H42.0478C42.8255 36.0674 43.4547 36.6872 43.4547 37.4502V45.2463C43.4561 46.0107 42.8255 46.629 42.0478 46.629Z" fill="#0E2F7A"/>
<path d="M36.7649 39.8555C34.622 39.8555 32.8774 38.1422 32.8774 36.0347V33.801C32.8774 31.6949 34.6206 29.9802 36.7649 29.9802C38.9092 29.9802 40.6523 31.6935 40.6523 33.801V36.0347C40.6523 38.1422 38.9077 39.8555 36.7649 39.8555ZM36.7649 32.048C35.7808 32.048 34.9813 32.8351 34.9813 33.801V36.0347C34.9813 37.0019 35.7822 37.7877 36.7649 37.7877C37.7476 37.7877 38.5484 37.0005 38.5484 36.0347V33.801C38.5484 32.8351 37.749 32.048 36.7649 32.048Z" fill="#0E2F7A"/>
<path d="M38.4275 42.4962H35.1013C34.8964 42.4962 34.7319 42.3331 34.7319 42.1331V40.5631C34.7319 40.3618 34.8979 40.2001 35.1013 40.2001H38.4275C38.6324 40.2001 38.7969 40.3632 38.7969 40.5631V42.1331C38.7969 42.3331 38.6324 42.4962 38.4275 42.4962Z" fill="#FFB248"/>
</svg>
